<svg version="1.1" id="Layer_1" xmlns="http://www.w3.org/2000/svg" xmlns:xlink="http://www.w3.org/1999/xlink" x="0px" y="0px"
	 width="35.93" height="32"  viewBox="0 0 1024 1024" enable-background="new 0 0 1024 1024" xml:space="preserve">
<path fill="#000000" opacity="1.000000" stroke="none" 
	d="
M549.231018,385.340881 
	C522.139099,395.284882 495.280060,404.802795 469.905792,417.856110 
	C459.834320,423.037201 450.068909,428.709076 439.048523,431.844482 
	C430.164764,434.372009 421.404968,434.731079 412.477539,432.379883 
	C405.883972,430.643341 399.146606,429.424683 392.803589,426.811066 
	C378.825867,421.051636 372.218994,409.804291 370.463379,395.524963 
	C367.977753,375.307861 373.503571,358.027893 391.473572,346.701996 
	C402.513885,339.743683 414.799103,338.063354 427.457367,341.921478 
	C431.129456,343.040680 432.619934,342.589447 432.768188,338.429291 
	C433.571045,315.900787 431.233093,293.854431 422.761932,272.782745 
	C418.037018,261.029663 410.325836,250.738831 405.758484,238.880356 
	C404.921936,236.708328 403.761749,234.661057 402.922424,232.489929 
	C399.564178,223.802704 403.453064,216.949203 412.702454,215.923477 
	C429.404388,214.071304 446.121338,212.289368 462.868561,210.927048 
	C486.083069,209.038620 509.277618,206.889587 532.614136,206.672684 
	C552.207764,206.490570 571.354065,210.248993 590.701599,212.224594 
	C594.341492,212.596252 597.974548,213.085526 601.586426,213.670853 
	C610.917542,215.183029 614.544556,222.653030 609.880981,230.989792 
	C603.458862,242.470306 596.999878,253.909485 592.159851,266.198334 
	C587.708252,277.501221 584.970154,289.007904 586.456238,301.207611 
	C588.000305,302.631775 589.720398,301.786316 591.292908,301.708313 
	C614.350952,300.564850 633.683289,308.702789 649.516479,325.264801 
	C657.335144,333.443420 658.341248,343.374054 656.638184,354.153046 
	C652.266663,381.820526 634.246582,396.896698 609.557861,405.943146 
	C604.247986,407.888824 598.827271,409.577148 593.370789,411.065826 
	C587.108459,412.774323 581.967468,410.425018 579.570129,405.164459 
	C577.241150,400.053894 578.829468,395.256470 584.305542,391.409821 
	C589.215210,387.961090 594.255432,384.680573 598.336060,380.215118 
	C599.733459,378.685883 602.130127,377.072144 600.656494,374.769226 
	C599.358704,372.741119 596.775879,372.469330 594.322388,372.887726 
	C584.623108,374.541840 575.166321,377.194458 565.741882,379.940399 
	C560.311340,381.522644 554.983887,383.458527 549.231018,385.340881 
M463.030884,371.464294 
	C480.840607,363.556305 498.929169,356.180054 514.361084,343.838165 
	C529.086792,332.061157 544.405762,321.140503 561.084106,312.257996 
	C563.782837,310.820709 564.776917,308.979980 564.764038,305.905029 
	C564.731995,298.258911 564.084839,290.592438 565.269775,282.961853 
	C567.623108,267.807800 573.395264,253.870850 580.184021,240.265396 
	C581.245056,238.138916 583.196228,236.234680 582.689514,233.299240 
	C531.293762,223.244431 480.372192,231.628235 429.291016,235.673172 
	C429.234161,239.117767 430.253418,241.017578 432.658813,242.693359 
	C436.878326,239.033829 438.836304,241.941238 440.887634,245.552994 
	C447.727417,257.595947 454.075500,269.848358 458.508118,283.023590 
	C461.363831,291.511627 461.037445,292.133850 452.210052,293.367126 
	C451.952179,293.403168 451.739136,293.760040 451.604370,293.879456 
	C455.090912,322.096802 456.972107,350.141449 447.437225,378.296051 
	C453.137115,376.900757 457.616364,374.033875 463.030884,371.464294 
M512.277222,371.881653 
	C508.609772,374.349670 504.041260,375.453308 499.654541,379.484497 
	C504.704712,379.504425 507.632141,378.283081 509.985626,375.764221 
	C510.992157,374.686951 511.675079,372.979370 513.532471,373.891266 
	C515.874634,375.041168 517.727539,373.702759 519.688599,372.961517 
	C540.875854,364.953125 562.326050,357.808563 584.426514,352.700867 
	C596.518921,349.906158 607.500183,351.439941 617.118042,359.879791 
	C620.891663,363.191254 622.052185,367.916901 624.227844,372.488647 
	C631.052612,367.359283 633.133728,360.239258 634.730591,352.866852 
	C635.754211,348.140778 637.374084,343.119904 633.226807,339.197052 
	C621.328430,327.942352 607.623230,321.406403 590.712830,323.933105 
	C580.032104,325.528931 571.222961,331.327484 562.097534,336.482147 
	C544.469849,346.439392 529.749207,360.460175 512.277222,371.881653 
M419.726349,390.676239 
	C421.134613,391.410828 422.199615,392.898651 424.439514,392.672363 
	C420.586090,383.051636 425.577148,374.628815 428.164307,366.058685 
	C419.433014,360.587280 410.518951,360.280121 404.606659,365.224640 
	C406.479095,367.446533 409.353180,369.393341 407.785980,373.046753 
	C407.674469,373.306610 408.477722,374.182739 409.016479,374.462036 
	C413.109619,376.583801 410.899078,382.673157 415.387756,384.507111 
	C414.003723,388.167206 417.116180,388.889587 419.726349,390.676239 
z"/>
<path fill="#000000" opacity="1.000000" stroke="none" 
	d="
M488.907776,513.907776 
	C484.133240,518.574097 480.276245,523.620544 475.381744,527.706482 
	C470.527161,531.759033 465.159943,534.622437 458.965302,535.693604 
	C449.970062,537.249023 441.112854,539.649780 431.835297,539.452576 
	C413.050446,539.053284 398.797852,522.000061 401.598419,503.338165 
	C403.537140,490.419403 410.040649,481.639313 422.813629,477.764069 
	C432.480377,474.831238 439.065613,480.577423 437.386139,490.607910 
	C437.149353,492.022034 436.022552,493.353333 436.938751,495.243988 
	C440.639893,495.230652 443.256653,493.381409 445.177216,490.248444 
	C447.822540,485.933258 449.886841,481.187653 450.327789,476.293335 
	C451.828400,459.638092 462.642090,451.261780 476.624786,445.581268 
	C486.990753,441.370117 497.689667,441.317963 508.394226,444.181763 
	C511.246216,444.944733 513.424377,444.596741 515.774353,442.763092 
	C537.725403,425.634979 577.627014,435.128937 589.309570,459.783173 
	C591.652649,464.727875 592.486145,469.885834 593.184998,475.165558 
	C594.050049,481.700897 598.031799,486.022736 602.944580,485.789642 
	C603.534546,485.761658 604.109375,485.413361 604.744751,485.195160 
	C604.193604,483.030579 602.385559,482.192657 601.304749,480.783020 
	C596.362732,474.337311 598.746033,465.624817 606.553711,463.556763 
	C617.618774,460.625885 635.565674,468.701965 638.308105,481.611481 
	C638.911438,484.451508 638.636658,487.103455 637.909119,489.943085 
	C629.800659,521.588318 607.237366,529.378967 579.564636,523.753723 
	C563.503540,520.488708 549.164734,513.183899 538.377441,500.809875 
	C530.804626,492.123230 522.124634,491.548370 512.217346,493.469421 
	C509.557678,493.985107 507.303131,495.436096 505.374146,497.382263 
	C499.983002,502.821381 494.563385,508.232300 488.907776,513.907776 
M555.966431,488.550171 
	C564.277405,495.605591 573.887451,499.954651 584.465759,502.533020 
	C581.632446,498.724121 578.842468,494.923828 575.515198,492.096771 
	C571.836609,488.971283 572.031677,483.346771 567.369995,481.252014 
	C567.133057,481.145569 567.237976,479.986603 567.388245,479.367249 
	C567.772278,477.784210 567.051819,476.591980 565.797424,476.048920 
	C560.829346,473.898163 556.844177,470.542694 553.488464,466.391113 
	C549.101257,460.963470 541.831360,463.271759 536.804504,459.807983 
	C534.830811,460.760468 534.257629,464.317352 531.463745,462.637299 
	C528.518494,460.866180 526.640076,462.029297 524.515320,464.093475 
	C520.483093,468.010834 515.780945,469.151062 510.285156,467.212921 
	C504.295502,465.100647 498.159210,463.735229 491.680573,464.169098 
	C480.494110,464.918243 473.335693,471.111542 471.040253,481.911163 
	C468.870056,492.121613 465.486755,501.801086 457.463257,509.156891 
	C454.606659,511.775726 450.916321,513.112976 447.192749,515.675232 
	C455.226776,515.500610 460.809967,512.518616 465.781494,507.119293 
	C474.003998,498.189240 482.101471,489.118713 491.314240,481.107300 
	C508.529816,466.136505 535.678528,467.170624 551.336060,483.694000 
	C552.711304,485.145294 554.089050,486.594269 555.966431,488.550171 
z"/>
<path fill="#000000" opacity="1.000000" stroke="none" 
	d="
M568.428589,612.488647 
	C565.590149,605.960205 564.051025,599.063538 556.449097,596.380920 
	C553.737671,595.424072 554.755920,592.337158 554.898071,590.111938 
	C555.066162,587.479980 557.254028,587.786865 559.047852,587.685913 
	C574.056641,586.841064 581.946960,592.146423 587.215149,606.284851 
	C590.800354,615.906555 594.651428,625.429260 599.651367,635.093323 
	C601.949707,628.798462 604.725403,622.626648 606.389221,616.168335 
	C607.628967,611.356018 599.908203,599.040161 595.041443,597.473633 
	C591.287781,596.265503 590.570435,594.030273 590.995544,590.681641 
	C591.480774,586.859131 594.431030,587.727539 596.763794,587.696228 
	C610.827148,587.507446 617.596008,591.980042 622.804626,604.969971 
	C627.067749,615.601990 631.209595,626.282654 635.713501,637.725220 
	C639.303711,632.093933 640.575378,626.429810 642.608582,621.117004 
	C646.057312,612.105530 649.246277,602.995056 652.630676,593.958496 
	C653.964050,590.398315 658.144775,588.800903 661.552490,590.299561 
	C664.188232,591.458740 662.940735,593.281067 662.351196,594.910950 
	C657.089966,609.455811 651.791260,623.987122 646.506897,638.523621 
	C643.438354,646.964722 640.311829,655.385681 637.348572,663.863586 
	C636.424316,666.507996 635.161682,668.102417 632.071899,668.137390 
	C629.032654,668.171875 627.660217,666.723999 626.607544,664.096191 
	C622.225281,653.156738 617.684204,642.280823 612.936707,630.738220 
	C609.532227,634.832825 609.042603,639.383484 607.409790,643.371399 
	C604.701843,649.985107 602.379578,656.760559 600.024780,663.513184 
	C599.066895,666.259949 597.855774,668.139404 594.474670,668.128662 
	C590.978271,668.117493 590.091248,665.837524 589.056641,663.275940 
	C582.261658,646.451721 575.409424,629.650696 568.428589,612.488647 
z"/>
<path fill="#000000" opacity="1.000000" stroke="none" 
	d="
M469.312134,667.532288 
	C464.211945,667.911194 459.279633,669.535034 455.391052,665.143677 
	C454.420654,664.047791 453.291077,665.073730 452.257050,665.616882 
	C438.017792,673.096008 422.006470,666.535217 417.398163,650.573792 
	C413.873199,638.364624 414.773102,626.366943 424.380157,616.642944 
	C430.156189,610.796631 437.451477,609.087463 445.495483,609.952759 
	C447.655029,610.185059 450.526154,612.431274 451.608490,608.448730 
	C452.736145,604.299194 450.661926,598.918335 447.444824,598.473755 
	C443.993042,597.996704 442.257172,596.833130 442.733032,593.125000 
	C443.223297,589.305054 446.181000,590.072632 448.469727,590.040466 
	C452.618835,589.982117 456.780762,590.162659 460.922913,590.451233 
	C466.136169,590.814331 469.099518,593.957275 470.062408,598.873352 
	C470.666107,601.955505 470.973389,605.142822 470.989990,608.285156 
	C471.083160,625.930176 471.068146,643.575989 471.028503,661.221375 
	C471.023804,663.315125 471.560699,665.609253 469.312134,667.532288 
M436.997986,652.354553 
	C438.182648,656.678223 440.515320,659.727600 445.487213,658.703491 
	C450.079498,657.757629 451.873779,654.551575 451.792938,649.914246 
	C451.653961,641.941345 451.644287,633.961609 451.820343,625.989990 
	C451.896393,622.547424 450.393188,620.792603 447.273102,619.872925 
	C442.696045,618.523987 438.906036,620.465820 437.288971,625.521606 
	C434.536224,634.127991 434.745728,642.856323 436.997986,652.354553 
z"/>
<path fill="#000000" opacity="1.000000" stroke="none" 
	d="
M276.783752,629.093994 
	C278.057495,598.885620 303.355774,580.803894 331.774292,589.733826 
	C346.138458,594.247314 348.282196,600.574890 348.108215,614.583862 
	C348.082581,616.648010 347.399750,618.159180 344.982819,618.216919 
	C342.905548,618.266479 340.916687,618.246704 340.193665,615.712952 
	C339.782990,614.273804 339.357880,612.836243 338.869568,611.422119 
	C335.568604,601.863037 328.726990,597.026978 318.914551,597.291077 
	C308.962646,597.558960 302.007660,602.992371 299.282410,612.671021 
	C296.427490,622.810242 296.229126,633.046692 298.877747,643.207153 
	C301.083191,651.667664 305.240295,658.859741 314.786255,660.480896 
	C325.217041,662.252380 333.783997,658.752319 340.149414,650.168701 
	C341.421021,648.453979 342.214966,646.359497 344.051178,645.120605 
	C351.613373,647.759277 352.307739,649.791443 347.770294,655.829346 
	C337.769287,669.137512 320.536163,673.919617 302.303650,668.445862 
	C288.053741,664.167847 277.607605,649.862549 276.840485,633.556519 
	C276.777954,632.226929 276.798737,630.893311 276.783752,629.093994 
z"/>
<path fill="#000000" opacity="1.000000" stroke="none" 
	d="
M411.181641,646.703491 
	C404.198914,666.794617 384.584015,674.893127 367.589600,665.086975 
	C355.046204,657.849304 349.743042,641.527710 355.420227,627.633423 
	C361.208801,613.466553 375.633789,606.752502 391.189240,610.984863 
	C405.009949,614.745239 413.579285,628.090027 411.638275,642.820312 
	C411.486145,643.974609 411.375366,645.134460 411.181641,646.703491 
M373.517609,631.282288 
	C373.347473,638.235535 372.348877,645.225037 374.956787,652.012939 
	C376.339844,655.612732 377.948822,658.814758 382.421448,658.929871 
	C387.236298,659.053772 389.120667,655.544128 390.279694,651.826355 
	C392.814362,643.696289 392.744781,635.399414 390.520355,627.214355 
	C389.422729,623.175476 387.090118,619.497253 382.416565,619.614258 
	C378.059570,619.723511 375.981323,623.245117 374.751892,627.117188 
	C374.399597,628.226807 374.072296,629.344238 373.517609,631.282288 
z"/>
<path fill="#000000" opacity="1.000000" stroke="none" 
	d="
M484.519043,659.431641 
	C476.536957,648.986206 475.303680,633.150146 481.420013,622.408020 
	C487.387207,611.927856 501.677887,606.978699 513.720154,611.221619 
	C526.840210,615.844421 533.222290,626.251587 531.292664,639.532959 
	C530.846619,642.603577 529.159485,643.281677 526.498047,643.270020 
	C518.336548,643.234253 510.170074,643.454468 502.014893,643.231445 
	C497.736420,643.114441 496.612244,644.931885 497.606628,648.666382 
	C498.678619,652.692017 499.479858,657.189453 504.227753,658.488220 
	C509.173279,659.841064 513.802612,658.745056 517.563232,654.973633 
	C518.621460,653.912292 519.763794,652.923279 520.732178,651.785950 
	C523.453369,648.589966 525.421936,651.189209 527.485901,652.638611 
	C529.881592,654.320984 528.673889,655.890625 527.349365,657.636780 
	C516.591919,671.818298 497.926575,672.748291 484.519043,659.431641 
M509.691711,623.027405 
	C507.583679,619.944153 505.043915,618.162231 501.393280,620.629456 
	C498.790131,622.388733 496.349213,630.258240 497.681122,632.390930 
	C497.994171,632.892212 498.652771,633.484558 499.170349,633.502014 
	C502.950653,633.629578 507.391785,635.058472 510.322571,632.910156 
	C513.259766,630.757202 510.468933,626.846069 509.691711,623.027405 
z"/>
<path fill="#000000" opacity="1.000000" stroke="none" 
	d="
M717.044983,620.267944 
	C708.455200,620.583496 707.687622,621.036377 705.320740,628.523865 
	C704.543884,630.981506 702.831909,630.871826 701.021912,630.867737 
	C699.136353,630.863464 698.059387,630.031006 697.673401,627.964294 
	C695.518494,616.426147 700.138977,610.705627 711.840881,610.681763 
	C723.672913,610.657654 735.505249,610.656189 747.337097,610.707397 
	C748.919067,610.714233 750.665283,610.169739 752.623047,612.002869 
	C742.599915,627.072021 732.528687,642.213623 721.588257,658.661926 
	C729.954468,658.661926 737.016541,658.866394 744.059387,658.586365 
	C748.381104,658.414551 749.559937,660.216431 749.339722,664.189941 
	C749.183105,667.014404 747.939148,668.063354 745.338257,668.062378 
	C730.840027,668.056824 716.340942,668.151550 701.844177,668.004700 
	C697.257690,667.958191 696.019653,664.063171 699.123169,659.222595 
	C703.888733,651.789612 708.896240,644.511963 713.779297,637.153992 
	C717.255615,631.915466 720.696106,626.653137 724.376648,621.060913 
	C721.710205,619.885376 719.547974,620.402771 717.044983,620.267944 
z"/>
<path fill="#000000" opacity="1.000000" stroke="none" 
	d="
M671.869263,652.994141 
	C671.857422,644.000488 671.805359,635.505554 671.851074,627.011230 
	C671.875732,622.431091 671.087158,618.615051 665.395081,618.264709 
	C662.812317,618.105652 662.856689,616.097839 662.821350,614.217102 
	C662.779846,612.009399 663.737976,610.729492 666.055908,610.738892 
	C671.050354,610.759155 676.063965,610.534790 681.033875,610.899414 
	C686.076111,611.269409 689.047241,614.316711 690.318176,619.271851 
	C691.585327,624.212341 691.207764,629.201782 691.241760,634.180176 
	C691.306580,643.673706 691.141663,653.169922 691.299561,662.661194 
	C691.361694,666.396790 690.219238,668.190063 686.212097,668.124023 
	C668.709961,667.835815 672.251221,670.265564 671.869263,652.994141 
z"/>
<path fill="#000000" opacity="1.000000" stroke="none" 
	d="
M684.374390,591.372925 
	C689.849670,595.561523 691.379456,601.141907 688.490051,605.319946 
	C685.872742,609.104492 680.184509,610.180115 676.024658,607.677063 
	C671.384399,604.885071 669.679138,599.402954 672.000366,594.739075 
	C674.107971,590.504211 677.820007,589.411194 684.374390,591.372925 
z"/>
<path fill="#000000" opacity="1.000000" stroke="none" 
	d="
M529.144287,234.991440 
	C542.724060,234.318085 555.823730,233.694794 568.916931,232.956467 
	C572.060608,232.779205 574.027161,233.468323 574.217957,237.110321 
	C574.396240,240.512009 573.587524,242.346878 569.687134,242.482254 
	C559.067993,242.850815 548.460510,243.553284 537.847290,244.100327 
	C527.567200,244.630219 517.281006,245.058533 507.007782,245.696701 
	C504.460602,245.854950 502.667725,245.638397 502.660065,242.577728 
	C502.653229,239.849457 501.715546,236.796967 506.307831,236.592117 
	C513.767944,236.259338 521.211304,235.549805 529.144287,234.991440 
z"/>
</svg>