<svg version="1.1" id="Layer_1" xmlns="http://www.w3.org/2000/svg" xmlns:xlink="http://www.w3.org/1999/xlink" x="0px" y="0px"
	 width="100%" viewBox="0 0 576 576" enable-background="new 0 0 576 576" xml:space="preserve">
<path fill="white" opacity="1.000000" stroke="none" 
	d="
M376.567871,21.345394 
	C382.941467,22.206850 388.915558,22.775469 394.820007,23.761112 
	C404.307007,25.344788 408.721130,33.869087 404.349823,42.488567 
	C399.906769,51.249481 394.752380,59.651993 390.373932,68.442764 
	C383.608002,82.026939 377.646423,95.950539 375.698151,111.211952 
	C375.044189,116.334267 375.252869,121.460869 375.573151,126.721931 
	C381.073212,126.721931 386.340759,126.476921 391.579132,126.764076 
	C415.040161,128.050140 434.540771,137.877838 450.410950,154.932587 
	C461.217529,166.545746 460.039917,180.271622 456.975769,194.463242 
	C451.688354,218.952042 435.859528,234.217316 414.212921,244.537170 
	C404.419312,249.206223 394.112061,252.565948 383.607025,255.257401 
	C376.674377,257.033600 370.911316,254.442535 368.177704,248.552704 
	C365.380005,242.524796 367.275543,236.014969 373.326965,232.023514 
	C378.626495,228.528015 383.810333,224.887405 388.458893,220.580276 
	C390.691803,218.511383 394.496277,216.063477 393.012878,213.009109 
	C391.403870,209.696060 387.219116,210.202026 383.569702,210.912140 
	C350.357971,217.374527 319.017120,229.568924 287.720673,241.932877 
	C265.557861,250.688492 243.669250,259.994446 222.950195,271.894958 
	C216.293472,275.718384 208.977783,278.271301 201.510391,280.029785 
	C179.256729,285.270325 159.079712,278.897705 139.816238,268.309021 
	C135.831589,266.118744 132.942947,262.448120 130.588409,258.598633 
	C114.204865,231.812637 121.345627,184.792572 160.348114,173.903473 
	C169.949921,171.222717 179.686371,170.636337 189.395050,173.754761 
	C191.097183,174.301498 192.736160,175.322098 195.040161,174.834259 
	C196.397034,170.851349 196.584869,166.480026 196.473511,162.302032 
	C195.805466,137.237595 193.510574,112.357529 182.658722,89.287460 
	C176.570160,76.343719 168.757812,64.235176 163.338440,50.933064 
	C161.902130,47.407505 159.850922,44.094391 159.663177,40.129086 
	C159.319244,32.865345 163.118393,27.672138 170.764099,26.581139 
	C181.953537,24.984472 193.224945,23.911932 204.485031,22.871521 
	C226.349136,20.851318 248.199936,18.498899 270.110870,17.221109 
	C297.851685,15.603335 325.653168,13.874514 353.347748,18.456285 
	C360.891235,19.704271 368.537842,20.328968 376.567871,21.345394 
M351.253387,105.122574 
	C354.220215,84.415421 363.181061,65.853134 372.483246,47.473721 
	C370.006866,45.651127 367.514130,46.370022 365.325012,45.705524 
	C362.543396,44.861179 361.218201,46.085575 361.347656,48.977760 
	C361.414673,50.475086 361.233643,51.997955 361.436584,53.471840 
	C361.902557,56.855793 360.222290,57.931828 357.160034,57.963753 
	C332.007599,58.225952 306.944580,60.368771 281.837738,61.595215 
	C280.072815,61.681431 278.586975,61.610527 277.880707,59.520622 
	C275.993256,53.935589 277.734467,50.947338 283.519836,50.210384 
	C285.168671,50.000347 286.839844,49.952103 288.502747,49.868317 
	C309.448151,48.812981 330.394287,47.771332 351.339020,46.702446 
	C353.057892,46.614727 354.821075,46.517387 356.572021,45.260723 
	C355.773712,44.843220 355.373962,44.495663 354.928436,44.420940 
	C327.951233,39.896282 300.806824,40.958797 273.722321,42.597328 
	C251.642761,43.933075 229.612900,46.173782 207.591171,48.322426 
	C202.306854,48.838020 196.715729,48.337528 191.665405,50.712429 
	C193.934082,58.161728 193.934082,58.161728 201.320847,55.427181 
	C201.472778,55.493378 201.690002,55.515991 201.767380,55.631939 
	C213.301468,72.916199 222.106766,91.494675 228.130386,111.382866 
	C228.519165,112.666466 228.784409,114.341522 227.291107,114.940125 
	C224.236954,116.164391 221.331024,118.629539 217.582748,116.540733 
	C222.666763,150.084259 224.205933,183.282028 213.345200,216.317535 
	C217.315704,215.649399 220.135391,214.243835 222.978226,212.879669 
	C228.833771,210.069809 234.665924,207.206161 240.580643,204.525589 
	C258.340363,196.476822 276.179047,188.636993 291.571259,176.262802 
	C309.127563,162.148865 327.464935,149.142273 347.402344,138.537811 
	C349.949921,137.182800 350.773041,135.296494 350.723389,132.468094 
	C350.568512,123.646324 350.252136,114.815140 351.253387,105.122574 
M433.816345,176.995361 
	C433.695709,173.918732 431.962158,171.599091 429.852600,169.722137 
	C411.512909,153.404694 389.787750,146.647522 366.349335,157.589020 
	C350.320679,165.071518 335.457672,174.629822 321.384094,185.363647 
	C307.363495,196.057083 293.952118,207.628510 277.845490,215.291031 
	C277.041473,215.673538 275.887390,216.008881 276.310211,217.700989 
	C280.401703,217.671646 284.067688,216.669418 286.693146,213.227081 
	C287.744476,211.848648 288.635895,210.371155 290.692169,211.296997 
	C293.109833,212.385574 295.260529,211.369019 297.421478,210.523392 
	C322.410767,200.744705 347.868896,192.468369 374.026428,186.387436 
	C388.626404,182.993317 401.734406,185.297867 412.892120,195.912445 
	C416.891418,199.717087 418.118561,204.910782 419.955505,210.340042 
	C430.500610,201.519485 432.901184,189.991196 433.816345,176.995361 
M184.563522,233.100830 
	C184.895294,232.777878 185.561569,232.384720 185.510651,232.142105 
	C183.421158,222.188065 186.237061,213.063095 190.147980,204.111832 
	C190.689850,202.871643 190.332764,202.014618 189.221527,201.136536 
	C183.170197,196.354721 168.675140,196.285461 162.680710,201.289658 
	C165.058701,203.733032 168.879166,205.632965 166.727127,210.177109 
	C166.562531,210.524673 167.771088,211.864044 168.578842,212.270386 
	C171.763718,213.872665 172.161469,216.289871 170.648972,219.274506 
	C173.452164,221.316589 176.947800,222.667938 175.603928,227.037476 
	C175.482956,227.430832 176.518402,228.346893 177.174744,228.781876 
	C179.388641,230.249084 181.673843,231.608688 184.563522,233.100830 
z"/>
<path fill="white" opacity="1.000000" stroke="none" 
	d="
M241.323944,395.476624 
	C229.380386,402.814850 215.973587,403.051208 203.107483,405.388031 
	C189.293320,407.897064 177.787384,403.448700 168.424576,393.357697 
	C153.608185,377.388885 156.563522,349.810791 174.396942,337.355621 
	C178.515762,334.478943 183.393387,332.881622 188.279617,331.992035 
	C195.857285,330.612457 203.070282,338.170288 201.919067,345.905670 
	C201.580170,348.182892 200.921982,350.412537 200.244827,353.391052 
	C204.879562,353.354156 208.059677,351.589569 210.360199,348.136993 
	C214.427719,342.032501 216.154251,335.020752 217.193146,327.960297 
	C219.112915,314.913513 226.878586,306.338043 237.665115,300.034851 
	C252.906357,291.128418 269.040375,288.592957 286.060913,294.253021 
	C288.644623,295.112152 290.540405,294.264282 292.451752,292.683197 
	C315.511292,273.608276 356.780670,281.652191 373.686523,303.207397 
	C379.241486,310.290039 383.005737,318.124237 383.371490,327.334595 
	C383.541290,331.610016 385.248840,335.433960 387.609802,338.901489 
	C390.019714,342.440948 393.378357,343.587952 398.152100,342.050201 
	C396.459259,340.163635 395.064087,338.634399 393.696991,337.080444 
	C389.798035,332.648407 389.693237,327.531494 392.002319,322.595947 
	C394.129486,318.049225 398.290314,315.918243 403.385468,315.859680 
	C416.040283,315.714203 426.536285,320.274628 433.826477,330.768097 
	C437.600739,336.200806 438.435913,342.475769 435.987122,348.883484 
	C434.266235,353.386566 432.560913,357.897552 430.731079,362.356750 
	C423.287292,380.496613 408.240326,387.656311 390.114319,389.084473 
	C365.942017,390.989014 345.241547,381.674042 326.520844,367.206451 
	C324.423035,365.585205 322.250122,363.832458 320.762238,361.689301 
	C313.343445,351.002838 302.865448,349.603607 291.148560,351.346924 
	C285.515747,352.184998 281.392487,355.459229 277.647858,359.308441 
	C269.404480,367.782013 261.288025,376.378998 253.103302,384.909760 
	C249.527206,388.637054 245.875946,392.286987 241.323944,395.476624 
M224.724075,375.373138 
	C228.373077,374.206177 230.936264,371.541962 233.445007,368.877625 
	C240.179581,361.725281 246.669174,354.334747 253.564560,347.343109 
	C263.930450,336.832489 274.798706,327.335266 290.528870,325.384705 
	C307.596893,323.268280 322.788330,325.891602 334.442047,339.643768 
	C342.907654,349.633728 354.005157,355.477997 365.803467,360.321472 
	C368.323212,361.355835 370.840607,362.547607 375.344757,362.303162 
	C368.583984,358.247650 366.863312,351.259430 360.839630,348.267456 
	C359.946014,347.823639 358.773163,346.987244 359.088837,346.058228 
	C360.387787,342.235321 357.406464,341.186432 355.251343,339.485687 
	C354.515167,338.904755 353.404266,337.734131 353.582428,337.221405 
	C355.703308,331.119110 350.868164,330.634338 347.271820,328.893158 
	C345.208710,327.894287 343.082825,326.555389 341.644928,324.822235 
	C337.254517,319.530334 333.220856,313.935303 325.027222,315.411621 
	C324.478119,315.510529 323.788513,314.993805 323.201660,314.691010 
	C320.275482,313.181030 317.373566,310.866272 314.863373,315.409943 
	C314.215088,316.583496 312.675049,316.264221 311.709839,315.544159 
	C308.138763,312.880035 305.819122,314.705627 303.285492,317.359955 
	C299.630432,321.189178 295.041351,322.983307 289.697937,321.793945 
	C286.780396,321.144501 283.922974,320.195984 281.073669,319.273529 
	C269.008881,315.367584 257.752472,317.077911 247.296204,324.142639 
	C244.749969,325.863037 242.974152,328.267181 242.282852,331.328430 
	C241.550415,334.571899 241.006393,337.861481 240.179825,341.079498 
	C237.245041,352.505188 233.138748,363.267639 223.664993,371.167542 
	C220.622635,373.704529 216.937073,375.093323 213.947830,378.033447 
	C217.298706,377.235352 220.649597,376.437256 224.724075,375.373138 
z"/>
<path fill="white" opacity="1.000000" stroke="none" 
	d="
M436.638428,515.565552 
	C441.940338,500.987213 447.080231,486.739746 452.309479,472.525146 
	C455.474182,463.922699 456.313263,463.529266 465.561615,465.467590 
	C466.817230,467.507263 465.437561,469.299103 464.797729,471.064514 
	C455.156342,497.667267 445.438354,524.242249 435.788910,550.842102 
	C434.656281,553.964233 433.585449,556.379761 429.356384,556.359192 
	C425.179596,556.338806 424.103271,554.002502 422.851654,550.879578 
	C417.722290,538.081177 412.417084,525.353210 406.899017,511.923859 
	C404.113525,516.346069 403.091095,520.691650 401.538727,524.773010 
	C398.166260,533.639526 394.987274,542.580994 391.832886,551.528320 
	C390.805115,554.443604 389.514954,556.358215 385.884216,556.308838 
	C382.496033,556.262756 380.843445,554.943054 379.620575,551.893311 
	C371.565765,531.805420 363.383698,511.768372 355.183167,491.739288 
	C353.544739,487.737518 351.680786,483.826263 349.859650,479.901672 
	C348.391479,476.737732 346.073517,474.215057 342.692139,473.372040 
	C337.621704,472.107880 338.692474,468.309631 338.897949,464.977570 
	C339.153503,460.832672 342.553406,461.863037 345.011292,461.840240 
	C363.314636,461.670105 370.729156,466.958710 377.197998,484.254730 
	C381.386139,495.452698 385.835297,506.553070 390.167480,517.697144 
	C390.635559,517.750305 391.103668,517.803406 391.571747,517.856567 
	C394.248810,510.293701 397.748810,502.900787 399.355896,495.117004 
	C400.773499,488.250977 391.742676,475.686249 384.793976,473.107758 
	C380.138611,471.380280 381.845917,467.698914 381.815735,464.666321 
	C381.783813,461.454315 384.529236,461.903229 386.625793,461.828278 
	C404.055084,461.205017 412.052948,466.148499 418.727692,482.211456 
	C423.389648,493.430542 427.633514,504.823181 432.090057,516.128113 
	C432.679871,517.624329 432.886963,519.355286 434.567108,520.578308 
	C435.252716,518.934509 435.883362,517.422363 436.638428,515.565552 
z"/>
<path fill="white" opacity="1.000000" stroke="none" 
	d="
M240.296936,552.766968 
	C240.184265,554.473328 239.813950,555.440002 238.484924,555.924561 
	C233.867020,557.608032 225.599792,555.747253 221.791809,551.889221 
	C216.913940,554.790039 211.874146,557.455688 205.739319,557.214905 
	C191.382141,556.651306 180.890411,548.188599 177.594284,534.124512 
	C175.343048,524.518860 175.441757,515.019287 179.308228,505.814056 
	C184.902023,492.496552 197.885696,485.581909 212.111099,488.186951 
	C213.727570,488.482971 215.344681,488.775604 216.903091,489.059204 
	C219.941391,480.898529 217.955109,476.448059 210.205322,474.131317 
	C206.874741,473.135651 207.872421,470.588623 207.721313,468.429199 
	C207.569855,466.264587 208.521744,464.854126 210.845444,464.858154 
	C217.168350,464.869080 223.529465,464.527008 229.803497,465.105286 
	C236.394409,465.712830 240.192734,471.348450 240.288651,479.876190 
	C240.423447,491.860596 240.339783,503.847473 240.338882,515.833313 
	C240.337967,527.985657 240.324097,540.137939 240.296936,552.766968 
M218.576828,512.667847 
	C218.553925,510.835449 218.476807,509.001801 218.518875,507.170898 
	C218.621048,502.725983 216.215897,500.533356 212.099518,499.641022 
	C206.817734,498.496002 202.524796,501.176453 200.853851,507.670288 
	C198.285400,517.652161 198.375320,527.782349 200.948944,537.769653 
	C202.363327,543.258362 205.923920,546.084961 209.872314,545.592224 
	C214.899643,544.964905 218.553131,540.641907 218.586975,535.119629 
	C218.630875,527.955688 218.583954,520.791138 218.576828,512.667847 
z"/>
<path fill="white" opacity="1.000000" stroke="none" 
	d="
M59.715767,473.662415 
	C48.283165,475.383270 41.703182,481.884918 39.163651,492.517578 
	C36.340061,504.339539 35.978058,516.276184 39.310738,528.023865 
	C41.808903,536.829895 46.256950,544.468506 56.076202,546.763977 
	C67.995934,549.550476 78.163155,546.314331 86.099091,536.862610 
	C88.217773,534.339233 89.939980,531.482971 91.828049,528.802490 
	C94.631973,528.953552 95.992805,531.109863 97.907440,532.298645 
	C100.469475,533.889404 100.328705,535.745361 98.859512,538.183044 
	C91.898079,549.733704 82.003433,556.976318 68.520760,558.659302 
	C50.450764,560.914978 34.204952,557.504822 22.602917,542.006348 
	C4.025912,517.190247 13.297719,468.428467 52.346066,462.388733 
	C64.447250,460.516998 76.232750,461.854004 87.042694,468.463013 
	C92.819885,471.995117 95.552162,477.172272 96.260368,483.624847 
	C96.604904,486.763977 96.706955,489.934143 96.810692,493.093811 
	C96.889198,495.484833 96.918983,497.991058 93.516647,498.120056 
	C90.838287,498.221619 88.049805,498.595276 87.431076,494.741486 
	C87.144302,492.955200 86.442230,491.219391 85.799484,489.509125 
	C81.340614,477.645386 72.875168,472.408539 59.715767,473.662415 
z"/>
<path fill="white" opacity="1.000000" stroke="none" 
	d="
M136.075928,487.771851 
	C155.866104,487.993683 169.424469,499.812469 171.247681,518.020813 
	C173.174194,537.260742 162.697998,552.606689 144.928101,556.574585 
	C120.435547,562.043701 99.397423,542.105042 103.404572,517.221130 
	C106.295166,499.270905 118.063728,488.512268 136.075928,487.771851 
M147.633377,532.056458 
	C149.221863,524.099548 148.803375,516.210266 146.526413,508.461029 
	C145.144119,503.756592 142.588074,499.537872 137.145798,499.514984 
	C131.621918,499.491821 129.214432,503.939148 127.838379,508.535889 
	C125.416061,516.627686 125.722473,524.901428 127.030479,533.163391 
	C127.530846,536.323914 128.596252,539.290649 130.455200,541.893494 
	C134.175598,547.102722 140.482559,546.953979 144.113281,541.649292 
	C145.933487,538.989868 146.646942,535.904114 147.633377,532.056458 
z"/>
<path fill="white" opacity="1.000000" stroke="none" 
	d="
M308.209717,503.043365 
	C311.953308,509.660645 311.497467,516.514038 311.214630,523.336792 
	C311.073425,526.742859 308.764099,527.209290 306.002319,527.200867 
	C296.180542,527.170776 286.358490,527.168457 276.536835,527.219055 
	C271.192871,527.246582 270.883301,527.767517 271.925476,533.078735 
	C273.023254,538.673096 274.548401,544.121887 281.021118,545.456604 
	C285.768555,546.435608 290.252350,544.821655 294.157013,541.981995 
	C295.623260,540.915649 296.882843,539.543701 298.147278,538.225403 
	C301.652130,534.571472 305.175293,534.857422 308.161774,538.934875 
	C309.344757,540.549988 308.587921,541.668762 307.735992,542.960693 
	C299.663696,555.202209 286.002563,560.019775 271.450562,555.735413 
	C258.220184,551.840210 249.033844,539.507629 248.608780,525.594360 
	C248.306396,515.696533 249.323349,506.212006 256.048676,498.375702 
	C269.846588,482.298615 296.801941,484.600189 308.209717,503.043365 
M287.109741,505.604279 
	C285.924103,502.004211 283.713104,499.293457 279.712799,499.437805 
	C275.340637,499.595642 273.731323,503.158234 272.625977,506.713837 
	C270.024231,515.083313 270.587830,515.796875 279.134308,515.792114 
	C288.542694,515.786865 288.542694,515.786865 287.109741,505.604279 
z"/>
<path fill="white" opacity="1.000000" stroke="none" 
	d="
M534.000000,556.213867 
	C526.009705,556.207886 518.516296,556.072571 511.030334,556.250122 
	C507.207275,556.340759 506.013153,554.777527 506.394440,551.147766 
	C506.667389,548.549133 507.666046,546.392822 509.078217,544.283386 
	C517.595215,531.561340 526.077393,518.815918 534.554626,506.067261 
	C535.553894,504.564514 536.870911,503.216064 537.234253,500.464752 
	C531.261292,500.183258 525.404236,499.432312 519.725464,501.803406 
	C516.599121,503.108765 515.489441,506.036469 515.424255,509.145966 
	C515.346558,512.847534 513.032654,512.899780 510.359802,512.932617 
	C507.219269,512.971191 506.580475,511.293671 506.502014,508.494690 
	C506.035095,491.837891 508.869293,488.822693 525.379517,488.819305 
	C538.529175,488.816620 551.678894,488.797668 564.828430,488.834045 
	C566.605347,488.838959 568.492126,488.353210 571.036072,490.190094 
	C559.225647,507.992950 547.394958,525.826355 534.800964,544.810364 
	C544.606506,544.810364 553.029358,544.993652 561.438721,544.735046 
	C565.813538,544.600464 567.262024,546.200317 567.283447,550.512817 
	C567.304993,554.851624 565.815796,556.416748 561.463257,556.299622 
	C552.481262,556.057739 543.488403,556.218750 534.000000,556.213867 
z"/>
<path fill="white" opacity="1.000000" stroke="none" 
	d="
M480.920898,488.804932 
	C494.159973,488.756897 498.275146,492.727570 498.333984,505.363586 
	C498.404449,520.506348 498.264832,535.650940 498.457520,550.791626 
	C498.509949,554.912659 497.105072,556.516846 492.990448,556.261658 
	C489.011353,556.015076 484.997223,556.022705 481.014984,556.232361 
	C477.451324,556.419922 476.494354,554.945435 476.539062,551.535522 
	C476.702728,539.057190 476.628632,526.575195 476.560547,514.094971 
	C476.545197,511.278870 476.076141,508.466827 476.022339,505.648956 
	C475.936005,501.126862 474.090576,498.345642 469.260803,498.211151 
	C465.579498,498.108643 465.767609,495.503052 465.689362,492.910156 
	C465.597290,489.858948 467.091003,488.753387 469.952484,488.808228 
	C473.445618,488.875183 476.941193,488.812653 480.920898,488.804932 
z"/>
<path fill="white" opacity="1.000000" stroke="none" 
	d="
M497.188416,475.337769 
	C497.602386,480.996490 495.592010,484.794342 490.498413,486.636230 
	C486.047058,488.245880 481.009735,486.771576 477.930145,483.035767 
	C474.800385,479.239014 474.246155,473.716339 476.572968,469.510925 
	C480.225220,462.909912 491.131134,463.347687 495.307678,470.329407 
	C496.143311,471.726288 496.539978,473.385803 497.188416,475.337769 
z"/>
</svg>